<svg xmlns="http://www.w3.org/2000/svg" xmlns:xlink="http://www.w3.org/1999/xlink" xmlns:lucid="lucid" width="880" height="1476"><g transform="translate(-480 0)" lucid:page-tab-id="0_0"><path d="M848 20c17.67 0 32 17.9 32 40s-14.33 40-32 40h-96c-17.67 0-32-17.9-32-40s14.33-40 32-40z" stroke="#3a414a" fill="#fff"/><use xlink:href="#a" transform="matrix(1,0,0,1,725,25) translate(51.574074074074076 39.65277777777778)"/><path d="M720 166a6 6 0 0 1 6-6h148a6 6 0 0 1 6 6v108a6 6 0 0 1-6 6H726a6 6 0 0 1-6-6z" stroke="#3a414a" fill="#fff"/><use xlink:href="#b" transform="matrix(1,0,0,1,732,171.99999999999997) translate(51.33333333333333 26.77777777777778)"/><use xlink:href="#c" transform="matrix(1,0,0,1,732,171.99999999999997) translate(6.9506172839506135 53.44444444444445)"/><use xlink:href="#d" transform="matrix(1,0,0,1,732,171.99999999999997) translate(110.53086419753086 53.44444444444445)"/><use xlink:href="#e" transform="matrix(1,0,0,1,732,171.99999999999997) translate(48.89506172839506 80.11111111111111)"/><path d="M795.2 323.6a8 8 0 0 1 9.6 0l70.4 52.8a4.5 4.5 0 0 1 0 7.2l-70.4 52.8a8 8 0 0 1-9.6 0l-70.4-52.8a4.5 4.5 0 0 1 0-7.2z" stroke="#3a414a" fill="#fff"/><use xlink:href="#f" transform="matrix(1,0,0,1,725,324.99999999999994) translate(67.01117283950617 31.52777777777778)"/><use xlink:href="#g" transform="matrix(1,0,0,1,725,324.99999999999994) translate(26.301296296296286 58.19444444444445)"/><use xlink:href="#h" transform="matrix(1,0,0,1,725,324.99999999999994) translate(49.727222222222224 84.86111111111111)"/><path d="M628 340c17.67 0 32 17.9 32 40s-14.33 40-32 40h-96c-17.67 0-32-17.9-32-40s14.33-40 32-40z" stroke="#3a414a" fill="#fff"/><use xlink:href="#i" transform="matrix(1,0,0,1,505,344.99999999999994) translate(12.160493827160494 39.65277777777778)"/><use xlink:href="#j" transform="matrix(1,0,0,1,505,344.99999999999994) translate(55.308641975308646 39.65277777777778)"/><path d="M689.65 381H679v-2h10.65zm31.85 0h-8.24v-2h8.24z" stroke="#e81313" stroke-width=".05" fill="#e81313"/><path d="M722.58 379.08l-.08.92.08.92-1.1.08v-2h1.13z" fill="#e81313"/><path d="M722.6 379.08l-.08.92.1.95-1.17.08v-2.05h1.2zm-1.1-.06v1.95l1.06-.07-.1-.9.1-.93v-.05z" stroke="#e81313" stroke-width=".05" fill="#e81313"/><path d="M678 384.63L663.74 380l14.26-4.63z" fill="#e81313"/><path d="M679 386l-18.5-6 18.5-6zm-12.03-6l10.03 3.26v-6.52z" stroke="#e81313" stroke-width=".05" fill="#e81313"/><use xlink:href="#k" transform="matrix(1,0,0,1,689.6525004102365,369.33333333333326) translate(0 14.222222222222223)"/><path d="M800 101v42.12" stroke="#3a414a" fill="none"/><path d="M800.5 101h-1v-.5h1z" stroke="#3a414a" stroke-width=".05" fill="#3a414a"/><path d="M800 157.88l-4.63-14.26h9.26z" stroke="#3a414a" fill="#3a414a"/><path d="M800 281v24.12" stroke="#3a414a" fill="none"/><path d="M800.5 281h-1v-.5h1z" stroke="#3a414a" stroke-width=".05" fill="#3a414a"/><path d="M800 319.88l-4.63-14.26h9.26z" stroke="#3a414a" fill="#3a414a"/><path d="M720 506a6 6 0 0 1 6-6h148a6 6 0 0 1 6 6v108a6 6 0 0 1-6 6H726a6 6 0 0 1-6-6z" stroke="#3a414a" fill="#fff"/><use xlink:href="#l" transform="matrix(1,0,0,1,732,512) translate(0.808641975308646 38.77777777777778)"/><use xlink:href="#m" transform="matrix(1,0,0,1,732,512) translate(60.00617283950617 38.77777777777778)"/><use xlink:href="#n" transform="matrix(1,0,0,1,732,512) translate(30.407407407407405 65.44444444444446)"/><path d="M801 481h-2v-5h2zm0-26.33h-2V439.5h2z" stroke="#008a0e" stroke-width=".05" fill="#008a0e"/><path d="M800 438.5l1-.06v1.1h-2v-1.1z" fill="#008a0e"/><path d="M800 438.48l1.02-.07v1.15H799v-1.14zm-.98 1.02H801v-1.04l-.98.07-.98-.07z" stroke="#008a0e" stroke-width=".05" fill="#008a0e"/><path d="M800 496.26L795.37 482h9.26z" fill="#008a0e"/><path d="M800 499.5l-6-18.5h12zm-3.26-16.5l3.26 10.03 3.26-10.03z" stroke="#008a0e" stroke-width=".05" fill="#008a0e"/><use xlink:href="#o" transform="matrix(1,0,0,1,784.6913580246913,454.6666666666667) translate(0 14.222222222222223)"/><path d="M720 666a6 6 0 0 1 6-6h148a6 6 0 0 1 6 6v108a6 6 0 0 1-6 6H726a6 6 0 0 1-6-6z" stroke="#3a414a" fill="#fff"/><use xlink:href="#p" transform="matrix(1,0,0,1,732,672) translate(2.0123456790123555 38.77777777777778)"/><use xlink:href="#q" transform="matrix(1,0,0,1,732,672) translate(41.51851851851853 38.77777777777778)"/><use xlink:href="#d" transform="matrix(1,0,0,1,732,672) translate(115.46913580246914 38.77777777777778)"/><use xlink:href="#r" transform="matrix(1,0,0,1,732,672) translate(44.574074074074076 65.44444444444446)"/><path d="M800 621v22.12" stroke="#3a414a" fill="none"/><path d="M800.5 621h-1v-.5h1z" stroke="#3a414a" stroke-width=".05" fill="#3a414a"/><path d="M800 657.88l-4.63-14.26h9.26z" stroke="#3a414a" fill="#3a414a"/><path d="M720 1005.5a6 6 0 0 1 6-6h148a6 6 0 0 1 6 6v108a6 6 0 0 1-6 6H726a6 6 0 0 1-6-6z" stroke="#3a414a" fill="#fff"/><use xlink:href="#s" transform="matrix(1,0,0,1,732,1011.5000499999999) translate(11.858024691358025 26.77777777777778)"/><use xlink:href="#t" transform="matrix(1,0,0,1,732,1011.5000499999999) translate(55.067901234567906 26.77777777777778)"/><use xlink:href="#u" transform="matrix(1,0,0,1,732,1011.5000499999999) translate(87.10493827160494 26.77777777777778)"/><use xlink:href="#v" transform="matrix(1,0,0,1,732,1011.5000499999999) translate(11.888888888888886 53.44444444444445)"/><use xlink:href="#u" transform="matrix(1,0,0,1,732,1011.5000499999999) translate(87.07407407407408 53.44444444444445)"/><use xlink:href="#w" transform="matrix(1,0,0,1,732,1011.5000499999999) translate(10.623456790123456 80.11111111111111)"/><use xlink:href="#x" transform="matrix(1,0,0,1,732,1011.5000499999999) translate(66.11728395061728 80.11111111111111)"/><path d="M794.38 1161.6a16 16 0 0 1 11.24 0l148.76 55.8a2.25 2.25 0 0 1 0 4.2l-148.76 55.8a16 16 0 0 1-11.24 0l-148.76-55.8a2.25 2.25 0 0 1 0-4.2z" stroke="#3a414a" fill="#fff"/><use xlink:href="#y" transform="matrix(1,0,0,1,645,1164.5000499999999) translate(71.08524691358024 45.27777777777778)"/><use xlink:href="#z" transform="matrix(1,0,0,1,645,1164.5000499999999) translate(94.54203703703702 45.27777777777778)"/><use xlink:href="#A" transform="matrix(1,0,0,1,645,1164.5000499999999) translate(159.97413580246914 45.27777777777778)"/><use xlink:href="#d" transform="matrix(1,0,0,1,645,1164.5000499999999) translate(220.40623456790124 45.27777777777778)"/><use xlink:href="#B" transform="matrix(1,0,0,1,645,1164.5000499999999) translate(70.56055555555555 71.94444444444446)"/><use xlink:href="#C" transform="matrix(1,0,0,1,645,1164.5000499999999) translate(151.91858024691356 71.94444444444446)"/><path d="M800 1120.5v23.2" stroke="#3a414a" fill="none"/><path d="M800.5 1120.5h-1v-.5h1z" stroke="#3a414a" stroke-width=".05" fill="#3a414a"/><path d="M800 1158.47l-4.63-14.27h9.26z" stroke="#3a414a" fill="#3a414a"/><path d="M560 1325.5a6 6 0 0 1 6-6h148a6 6 0 0 1 6 6v108a6 6 0 0 1-6 6H566a6 6 0 0 1-6-6z" stroke="#3a414a" fill="#fff"/><use xlink:href="#D" transform="matrix(1,0,0,1,572,1331.5000499999999) translate(6.333333333333343 38.77777777777778)"/><use xlink:href="#E" transform="matrix(1,0,0,1,572,1331.5000499999999) translate(50.77777777777779 38.77777777777778)"/><use xlink:href="#F" transform="matrix(1,0,0,1,572,1331.5000499999999) translate(15.191358024691354 65.44444444444446)"/><use xlink:href="#G" transform="matrix(1,0,0,1,572,1331.5000499999999) translate(52.53703703703703 65.44444444444446)"/><path d="M820 1325.5a6 6 0 0 1 6-6h148a6 6 0 0 1 6 6v108a6 6 0 0 1-6 6H826a6 6 0 0 1-6-6z" stroke="#3a414a" fill="#fff"/><use xlink:href="#D" transform="matrix(1,0,0,1,832,1331.5000499999999) translate(23.123456790123456 38.77777777777778)"/><use xlink:href="#H" transform="matrix(1,0,0,1,832,1331.5000499999999) translate(67.5679012345679 38.77777777777778)"/><use xlink:href="#I" transform="matrix(1,0,0,1,832,1331.5000499999999) translate(10.407407407407405 65.44444444444446)"/><use xlink:href="#J" transform="matrix(1,0,0,1,832,1331.5000499999999) translate(100.53086419753087 65.44444444444446)"/><path d="M644.65 1300.5h-2v-20.58h2zm0-41.92h-2v-38.08h2z" stroke="#e81313" stroke-width=".05" fill="#e81313"/><path fill="#e81313"/><path stroke="#e81313" stroke-width=".05" fill="#e81313"/><path d="M643.65 1315.76l-4.63-14.26h9.27z" fill="#e81313"/><path d="M643.65 1319l-6-18.5h12.02zm-3.25-16.5l3.25 10.03 3.26-10.03z" stroke="#e81313" stroke-width=".05" fill="#e81313"/><use xlink:href="#k" transform="matrix(1,0,0,1,631.8519102614928,1258.5824070987455) translate(0 14.222222222222223)"/><path d="M1020 1325.5a6 6 0 0 1 6-6h148a6 6 0 0 1 6 6v108a6 6 0 0 1-6 6h-148a6 6 0 0 1-6-6z" stroke="#3a414a" fill="#fff"/><use xlink:href="#p" transform="matrix(1,0,0,1,1032,1331.5000499999999) translate(2.0123456790123555 38.77777777777778)"/><use xlink:href="#q" transform="matrix(1,0,0,1,1032,1331.5000499999999) translate(41.51851851851853 38.77777777777778)"/><use xlink:href="#d" transform="matrix(1,0,0,1,1032,1331.5000499999999) translate(115.46913580246914 38.77777777777778)"/><use xlink:href="#e" transform="matrix(1,0,0,1,1032,1331.5000499999999) translate(48.89506172839506 65.44444444444446)"/><path d="M981 1379.5h22.12" stroke="#3a414a" fill="none"/><path d="M981 1380h-.5v-1h.5z" stroke="#3a414a" stroke-width=".05" fill="#3a414a"/><path d="M1017.88 1379.5l-14.26 4.63v-9.27z" stroke="#3a414a" fill="#3a414a"/><path d="M1015.02 929.58l1 .24.93.4.87.52.78.66.66.78.53.87.38.94.24.98.08 1v338l.07.88.2.84.33.8.45.73.56.66.67.55.73.45.8.33.84.2.88.07h168l1 .08 1 .24.93.4.87.52.78.66.66.78.53.87.38.94.24.98.08 1v178.04l-.08 1-.24 1-.4.93-.52.87-.66.78-.78.66-.87.53-.94.38-.98.24-1 .08H645.98l-1-.08-1-.24-.93-.4-.87-.52-.78-.66-.66-.78-.53-.87-.38-.94-.24-.98-.08-1v-23.52h1v23.48l.07.88.2.84.33.8.45.73.56.66.67.55.73.45.8.33.84.2.88.07h547.96l.88-.07.84-.2.8-.33.73-.45.66-.56.55-.67.45-.73.33-.8.2-.84.07-.88v-177.96l-.07-.88-.2-.84-.33-.8-.45-.73-.56-.66-.67-.55-.73-.45-.8-.33-.84-.2-.88-.07h-168l-1-.08-1-.24-.93-.4-.87-.52-.78-.66-.66-.78-.53-.87-.38-.94-.24-.98-.08-1v-338l-.07-.88-.2-.84-.33-.8-.45-.73-.56-.66-.67-.55-.73-.45-.8-.33-.84-.2-.88-.07H843.76v-1h170.26z" stroke="#3a414a" stroke-width=".05" fill="#3a414a"/><path d="M640.5 1440.5h-1v-.5h1z" fill="#3a414a"/><path d="M640.52 1440.54h-1.04v-.57h1.04zm-1-.5v.45h.96v-.47z" stroke="#3a414a" stroke-width=".05" fill="#3a414a"/><path d="M843.7 934.64l-14.06-5.2 14.44-4.07z" fill="#3a414a"/><path d="M844.17 935.35l-16.15-6 16.6-4.64zm-12.92-5.86l11.98 4.43.32-7.9z" stroke="#3a414a" stroke-width=".05" fill="#3a414a"/><path d="M795.2 833.35a8 8 0 0 1 9.6 0l70.4 52.8a4.5 4.5 0 0 1 0 7.2l-70.4 52.8a8 8 0 0 1-9.6 0l-70.4-52.8a4.5 4.5 0 0 1 0-7.2z" stroke="#3a414a" fill="#fff"/><use xlink:href="#K" transform="matrix(1,0,0,1,725,834.7500249999999) translate(66.36302469135802 31.52777777777778)"/><use xlink:href="#L" transform="matrix(1,0,0,1,725,834.7500249999999) translate(41.11611111111111 58.19444444444445)"/><use xlink:href="#h" transform="matrix(1,0,0,1,725,834.7500249999999) translate(49.727222222222224 84.86111111111111)"/><path d="M800 781v33.87" stroke="#3a414a" fill="none"/><path d="M800.5 781h-1v-.5h1z" stroke="#3a414a" stroke-width=".05" fill="#3a414a"/><path d="M800 829.63l-4.63-14.26h9.26z" stroke="#3a414a" fill="#3a414a"/><path d="M801 962.96h-2v-13.7h2z" stroke="#008a0e" stroke-width=".05" fill="#008a0e"/><path d="M800 948.25l1-.06v1.08h-2v-1.1z" fill="#008a0e"/><path d="M800 948.23l1.02-.07v1.14H799v-1.14zm-.98 1.02H801v-1.04l-.98.08-.98-.07z" stroke="#008a0e" stroke-width=".05" fill="#008a0e"/><path d="M800 995.76l-3.73-11.47h7.46z" fill="#008a0e"/><path d="M800 999l-4.78-14.7h2.1l2.68 8.23 2.68-8.24h2.1z" stroke="#008a0e" stroke-width=".05" fill="#008a0e"/><use xlink:href="#o" transform="matrix(1,0,0,1,784.6913580246913,962.9589040625998) translate(0 14.222222222222223)"/><path d="M966.7 890.75h-88.2v-2h88.2zm94.3 0h-70.7v-2h70.7z" stroke="#e81313" stroke-width=".05" fill="#e81313"/><path d="M878.53 890.75h-1.14l.1-1-.08-.92 1.1-.08z" fill="#e81313"/><path d="M878.55 890.77h-1.18l.1-1.02-.08-.95 1.15-.08zm-1.1-1.92l.08.9-.1.98h1.07v-1.95z" stroke="#e81313" stroke-width=".05" fill="#e81313"/><path d="M1076.26 889.75l-14.26 4.63v-9.26z" fill="#e81313"/><path d="M1079.5 889.75l-18.5 6v-12zM1063 893l10.03-3.25-10.03-3.26z" stroke="#e81313" stroke-width=".05" fill="#e81313"/><use xlink:href="#k" transform="matrix(1,0,0,1,966.6986133537009,879.0833583333333) translate(0 14.222222222222223)"/><path d="M957.35 1300.5h-2v-20.58h2zm0-41.92h-2v-38.08h2z" stroke="#008a0e" stroke-width=".05" fill="#008a0e"/><path fill="#008a0e"/><path stroke="#008a0e" stroke-width=".05" fill="#008a0e"/><path d="M956.35 1315.76l-4.64-14.26H961z" fill="#008a0e"/><path d="M956.35 1319l-6.02-18.5h12.03zm-3.26-16.5l3.25 10.03 3.25-10.03z" stroke="#008a0e" stroke-width=".05" fill="#008a0e"/><use xlink:href="#o" transform="matrix(1,0,0,1,941.0369786273964,1258.5823892976505) translate(0 14.222222222222223)"/><path d="M1080 830.42a6 6 0 0 1 6-6h148a6 6 0 0 1 6 6v118.66a6 6 0 0 1-6 6h-148a6 6 0 0 1-6-6z" stroke="#3a414a" fill="#fff"/><use xlink:href="#s" transform="matrix(1,0,0,1,1092,836.4166916666666) translate(13.709876543209873 21.12152777777778)"/><use xlink:href="#M" transform="matrix(1,0,0,1,1092,836.4166916666666) translate(56.91975308641975 21.12152777777778)"/><use xlink:href="#N" transform="matrix(1,0,0,1,1092,836.4166916666666) translate(81.61111111111111 21.12152777777778)"/><use xlink:href="#O" transform="matrix(1,0,0,1,1092,836.4166916666666) translate(0.191358024691354 47.78819444444444)"/><use xlink:href="#P" transform="matrix(1,0,0,1,1092,836.4166916666666) translate(66.79629629629629 47.78819444444444)"/><use xlink:href="#Q" transform="matrix(1,0,0,1,1092,836.4166916666666) translate(21.73456790123457 74.45486111111111)"/><use xlink:href="#R" transform="matrix(1,0,0,1,1092,836.4166916666666) translate(64.94444444444446 74.45486111111111)"/><use xlink:href="#S" transform="matrix(1,0,0,1,1092,836.4166916666666) translate(32.25925925925926 101.12152777777777)"/><path d="M1155.2 663.6a8 8 0 0 1 9.6 0l70.4 52.8a4.5 4.5 0 0 1 0 7.2l-70.4 52.8a8 8 0 0 1-9.6 0l-70.4-52.8a4.5 4.5 0 0 1 0-7.2z" stroke="#3a414a" fill="#fff"/><g><use xlink:href="#K" transform="matrix(1,0,0,1,1085,665) translate(66.36302469135802 21.21527777777778)"/><use xlink:href="#T" transform="matrix(1,0,0,1,1085,665) translate(39.26425925925926 47.88194444444444)"/><use xlink:href="#U" transform="matrix(1,0,0,1,1085,665) translate(33.86302469135803 74.54861111111111)"/></g><path d="M1160 823.42V794.9" stroke="#3a414a" fill="none"/><path d="M1160.5 823.92h-1v-.52h1z" stroke="#3a414a" stroke-width=".05" fill="#3a414a"/><path d="M1160 780.12l4.63 14.26h-9.27z" stroke="#3a414a" fill="#3a414a"/><path d="M980 526a6 6 0 0 1 6-6h148a6 6 0 0 1 6 6v108a6 6 0 0 1-6 6H986a6 6 0 0 1-6-6z" stroke="#3a414a" fill="#fff"/><g><use xlink:href="#b" transform="matrix(1,0,0,1,992,532) translate(51.33333333333333 26.77777777777778)"/><use xlink:href="#c" transform="matrix(1,0,0,1,992,532) translate(6.9506172839506135 53.44444444444445)"/><use xlink:href="#d" transform="matrix(1,0,0,1,992,532) translate(110.53086419753086 53.44444444444445)"/><use xlink:href="#e" transform="matrix(1,0,0,1,992,532) translate(48.89506172839506 80.11111111111111)"/></g><path d="M1061 713.96l.07.82.18.76.3.73.4.67.52.6.6.5.66.4.73.3.76.2.82.06h15.46v2h-15.54l-1.06-.08-1.06-.26-1.02-.42-.94-.57-.83-.72-.72-.83-.57-.94-.42-1.02-.26-1.06-.08-1.06v-27.8h2zm0-49.05h-2V659h2z" stroke="#008a0e" stroke-width=".05" fill="#008a0e"/><path d="M1082.58 719.08l-.08.92.08.92-1.1.08v-2h1.13z" fill="#008a0e"/><path d="M1082.6 719.08l-.08.92.1.95-1.17.08v-2.05h1.2zm-1.1-.06v1.95l1.06-.07-.1-.9.1-.93v-.05z" stroke="#008a0e" stroke-width=".05" fill="#008a0e"/><path d="M1064.63 658h-9.27l4.64-14.26z" fill="#008a0e"/><path d="M1066 659h-12l6-18.5zm-9.26-2h6.52l-3.26-10.03z" stroke="#008a0e" stroke-width=".05" fill="#008a0e"/><g><use xlink:href="#o" transform="matrix(1,0,0,1,1044.6913580246915,664.9105839951509) translate(0 14.222222222222223)"/></g><path d="M1180 526a6 6 0 0 1 6-6h148a6 6 0 0 1 6 6v108a6 6 0 0 1-6 6h-148a6 6 0 0 1-6-6z" stroke="#3a414a" fill="#fff"/><g><use xlink:href="#b" transform="matrix(1,0,0,1,1192,532) translate(51.33333333333333 26.77777777777778)"/><use xlink:href="#c" transform="matrix(1,0,0,1,1192,532) translate(6.9506172839506135 53.44444444444445)"/><use xlink:href="#d" transform="matrix(1,0,0,1,1192,532) translate(110.53086419753086 53.44444444444445)"/><use xlink:href="#r" transform="matrix(1,0,0,1,1192,532) translate(44.574074074074076 80.11111111111111)"/></g><path d="M1261 714.04l-.08 1.06-.26 1.06-.42 1.02-.57.94-.72.83-.83.72-.94.57-1.02.42-1.06.26-1.06.08h-15.54v-2h15.46l.82-.07.76-.18.73-.3.67-.4.6-.52.5-.6.4-.66.3-.73.2-.76.06-.82V687.2h2zm0-48.17h-2V659h2z" stroke="#e81313" stroke-width=".05" fill="#e81313"/><path d="M1238.53 721h-1.14l.1-1-.08-.92 1.1-.08z" fill="#e81313"/><path d="M1238.55 721.02h-1.18l.1-1.02-.08-.95 1.15-.08zm-1.1-1.92l.08.9-.1.98h1.07v-1.95z" stroke="#e81313" stroke-width=".05" fill="#e81313"/><path d="M1264.63 658h-9.27l4.64-14.26z" fill="#e81313"/><path d="M1266 659h-12l6-18.5zm-9.26-2h6.52l-3.26-10.03z" stroke="#e81313" stroke-width=".05" fill="#e81313"/><g><use xlink:href="#k" transform="matrix(1,0,0,1,1248.1975308641975,665.868325012121) translate(0 14.222222222222223)"/></g><path d="M1060 519V386a6 6 0 0 0-6-6H893.9" stroke="#3a414a" fill="none"/><path d="M1060.5 519.5h-1v-.5h1z" stroke="#3a414a" stroke-width=".05" fill="#3a414a"/><path d="M879.12 380l14.27-4.63v9.26z" stroke="#3a414a" fill="#3a414a"/><path d="M1260 519V386a6 6 0 0 0-6-6H893.9" stroke="#3a414a" fill="none"/><path d="M1260.5 519.5h-1v-.5h1z" stroke="#3a414a" stroke-width=".05" fill="#3a414a"/><path d="M879.12 380l14.27-4.63v9.26z" stroke="#3a414a" fill="#3a414a"/><path d="M1005.02 939.58l1 .24.93.4.87.52.78.66.66.78.53.87.38.94.24.98.08 1v346l.07.88.2.84.33.8.45.73.56.66.67.55.73.45.8.33.84.2.88.07h78l1 .08 1 .24.93.4.87.52.78.66.66.78.53.87.38.94.24.98.08 1v14.52h-1v-14.48l-.07-.88-.2-.84-.33-.8-.45-.73-.56-.66-.67-.55-.73-.45-.8-.33-.84-.2-.88-.07h-78l-1-.08-1-.24-.93-.4-.87-.52-.78-.66-.66-.78-.53-.87-.38-.94-.24-.98-.08-1v-346l-.07-.88-.2-.84-.33-.8-.45-.73-.56-.66-.67-.55-.73-.45-.8-.33-.84-.2-.88-.07H833.76v-1h170.26z" stroke="#3a414a" stroke-width=".05" fill="#3a414a"/><path d="M1100.5 1319h-1v-.5h1z" fill="#3a414a"/><path d="M1100.53 1319.03h-1.06v-.57h1.06zm-1-.52v.47h.94v-.46z" stroke="#3a414a" stroke-width=".05" fill="#3a414a"/><path d="M839.64 941.13l-8.15 4.4-2.7-14.75z" fill="#3a414a"/><path d="M840.5 941.25l-9.38 5.06-3.1-16.94zm-8.64 3.52l6.94-3.75-9.24-8.8z" stroke="#3a414a" stroke-width=".05" fill="#3a414a"/><defs><path fill="#3a414a" d="M185-189c-5-48-123-54-124 2 14 75 158 14 163 119 3 78-121 87-175 55-17-10-28-26-33-46l33-7c5 56 141 63 141-1 0-78-155-14-162-118-5-82 145-84 179-34 5 7 8 16 11 25" id="V"/><path fill="#3a414a" d="M59-47c-2 24 18 29 38 22v24C64 9 27 4 27-40v-127H5v-23h24l9-43h21v43h35v23H59v120" id="W"/><path fill="#3a414a" d="M141-36C126-15 110 5 73 4 37 3 15-17 15-53c-1-64 63-63 125-63 3-35-9-54-41-54-24 1-41 7-42 31l-33-3c5-37 33-52 76-52 45 0 72 20 72 64v82c-1 20 7 32 28 27v20c-31 9-61-2-59-35zM48-53c0 20 12 33 32 33 41-3 63-29 60-74-43 2-92-5-92 41" id="X"/><path fill="#3a414a" d="M114-163C36-179 61-72 57 0H25l-1-190h30c1 12-1 29 2 39 6-27 23-49 58-41v29" id="Y"/><g id="a"><use transform="matrix(0.06172839506172839,0,0,0.06172839506172839,0,0)" xlink:href="#V"/><use transform="matrix(0.06172839506172839,0,0,0.06172839506172839,14.814814814814813,0)" xlink:href="#W"/><use transform="matrix(0.06172839506172839,0,0,0.06172839506172839,20.98765432098765,0)" xlink:href="#X"/><use transform="matrix(0.06172839506172839,0,0,0.06172839506172839,33.33333333333333,0)" xlink:href="#Y"/><use transform="matrix(0.06172839506172839,0,0,0.06172839506172839,40.679012345679006,0)" xlink:href="#W"/></g><path fill="#3a414a" d="M100-194c63 0 86 42 84 106H49c0 40 14 67 53 68 26 1 43-12 49-29l28 8c-11 28-37 45-77 45C44 4 14-33 15-96c1-61 26-98 85-98zm52 81c6-60-76-77-97-28-3 7-6 17-6 28h103" id="Z"/><g id="b"><use transform="matrix(0.06172839506172839,0,0,0.06172839506172839,0,0)" xlink:href="#V"/><use transform="matrix(0.06172839506172839,0,0,0.06172839506172839,14.814814814814813,0)" xlink:href="#Z"/><use transform="matrix(0.06172839506172839,0,0,0.06172839506172839,27.160493827160494,0)" xlink:href="#W"/></g><path fill="#3a414a" d="M115-194c55 1 70 41 70 98S169 2 115 4C84 4 66-9 55-30l1 105H24l-1-265h31l2 30c10-21 28-34 59-34zm-8 174c40 0 45-34 45-75s-6-73-45-74c-42 0-51 32-51 76 0 43 10 73 51 73" id="aa"/><path fill="#3a414a" d="M24 0v-261h32V0H24" id="ab"/><path fill="#3a414a" d="M179-190L93 31C79 59 56 82 12 73V49c39 6 53-20 64-50L1-190h34L92-34l54-156h33" id="ac"/><path fill="#3a414a" d="M205 0l-28-72H64L36 0H1l101-248h38L239 0h-34zm-38-99l-47-123c-12 45-31 82-46 123h93" id="ad"/><path fill="#3a414a" d="M177-190C167-65 218 103 67 71c-23-6-38-20-44-43l32-5c15 47 100 32 89-28v-30C133-14 115 1 83 1 29 1 15-40 15-95c0-56 16-97 71-98 29-1 48 16 59 35 1-10 0-23 2-32h30zM94-22c36 0 50-32 50-73 0-42-14-75-50-75-39 0-46 34-46 75s6 73 46 73" id="ae"/><path fill="#3a414a" d="M24-231v-30h32v30H24zM24 0v-190h32V0H24" id="af"/><path fill="#3a414a" d="M117-194c89-4 53 116 60 194h-32v-121c0-31-8-49-39-48C34-167 62-67 57 0H25l-1-190h30c1 10-1 24 2 32 11-22 29-35 61-36" id="ag"/><g id="c"><use transform="matrix(0.06172839506172839,0,0,0.06172839506172839,0,0)" xlink:href="#aa"/><use transform="matrix(0.06172839506172839,0,0,0.06172839506172839,12.345679012345679,0)" xlink:href="#ab"/><use transform="matrix(0.06172839506172839,0,0,0.06172839506172839,17.22222222222222,0)" xlink:href="#X"/><use transform="matrix(0.06172839506172839,0,0,0.06172839506172839,29.5679012345679,0)" xlink:href="#ac"/><use transform="matrix(0.06172839506172839,0,0,0.06172839506172839,40.67901234567901,0)" xlink:href="#ad"/><use transform="matrix(0.06172839506172839,0,0,0.06172839506172839,55.49382716049382,0)" xlink:href="#ae"/><use transform="matrix(0.06172839506172839,0,0,0.06172839506172839,67.8395061728395,0)" xlink:href="#X"/><use transform="matrix(0.06172839506172839,0,0,0.06172839506172839,80.18518518518519,0)" xlink:href="#af"/><use transform="matrix(0.06172839506172839,0,0,0.06172839506172839,85.06172839506173,0)" xlink:href="#ag"/></g><path fill="#3a414a" d="M100-194c62-1 85 37 85 99 1 63-27 99-86 99S16-35 15-95c0-66 28-99 85-99zM99-20c44 1 53-31 53-75 0-43-8-75-51-75s-53 32-53 75 10 74 51 75" id="ah"/><g id="d"><use transform="matrix(0.06172839506172839,0,0,0.06172839506172839,0,0)" xlink:href="#W"/><use transform="matrix(0.06172839506172839,0,0,0.06172839506172839,6.172839506172839,0)" xlink:href="#ah"/></g><path fill="#3a414a" d="M84 4C-5 8 30-112 23-190h32v120c0 31 7 50 39 49 72-2 45-101 50-169h31l1 190h-30c-1-10 1-25-2-33-11 22-28 36-60 37" id="ai"/><g id="e"><use transform="matrix(0.06172839506172839,0,0,0.06172839506172839,0,0)" xlink:href="#W"/><use transform="matrix(0.06172839506172839,0,0,0.06172839506172839,6.172839506172839,0)" xlink:href="#Y"/><use transform="matrix(0.06172839506172839,0,0,0.06172839506172839,13.518518518518519,0)" xlink:href="#ai"/><use transform="matrix(0.06172839506172839,0,0,0.06172839506172839,25.864197530864196,0)" xlink:href="#Z"/></g><path fill="#3a414a" d="M135-143c-3-34-86-38-87 0 15 53 115 12 119 90S17 21 10-45l28-5c4 36 97 45 98 0-10-56-113-15-118-90-4-57 82-63 122-42 12 7 21 19 24 35" id="aj"/><g id="f"><use transform="matrix(0.06172839506172839,0,0,0.06172839506172839,0,0)" xlink:href="#af"/><use transform="matrix(0.06172839506172839,0,0,0.06172839506172839,4.876543209876543,0)" xlink:href="#aj"/></g><g id="g"><use transform="matrix(0.06172839506172839,0,0,0.06172839506172839,0,0)" xlink:href="#aa"/><use transform="matrix(0.06172839506172839,0,0,0.06172839506172839,12.345679012345679,0)" xlink:href="#ab"/><use transform="matrix(0.06172839506172839,0,0,0.06172839506172839,17.22222222222222,0)" xlink:href="#X"/><use transform="matrix(0.06172839506172839,0,0,0.06172839506172839,29.5679012345679,0)" xlink:href="#ac"/><use transform="matrix(0.06172839506172839,0,0,0.06172839506172839,40.67901234567901,0)" xlink:href="#ad"/><use transform="matrix(0.06172839506172839,0,0,0.06172839506172839,55.49382716049382,0)" xlink:href="#ae"/><use transform="matrix(0.06172839506172839,0,0,0.06172839506172839,67.8395061728395,0)" xlink:href="#X"/><use transform="matrix(0.06172839506172839,0,0,0.06172839506172839,80.18518518518519,0)" xlink:href="#af"/><use transform="matrix(0.06172839506172839,0,0,0.06172839506172839,85.06172839506173,0)" xlink:href="#ag"/></g><path fill="#3a414a" d="M103-251c84 0 111 97 45 133-19 10-37 24-39 52H78c0-63 77-55 77-114 0-30-21-42-52-43-32 0-53 17-56 46l-32-2c7-45 34-72 88-72zM77 0v-35h34V0H77" id="ak"/><g id="h"><use transform="matrix(0.06172839506172839,0,0,0.06172839506172839,0,0)" xlink:href="#W"/><use transform="matrix(0.06172839506172839,0,0,0.06172839506172839,6.172839506172839,0)" xlink:href="#Y"/><use transform="matrix(0.06172839506172839,0,0,0.06172839506172839,13.518518518518519,0)" xlink:href="#ai"/><use transform="matrix(0.06172839506172839,0,0,0.06172839506172839,25.864197530864196,0)" xlink:href="#Z"/><use transform="matrix(0.06172839506172839,0,0,0.06172839506172839,38.20987654320987,0)" xlink:href="#ak"/></g><path fill="#3a414a" d="M30 0v-248h187v28H63v79h144v27H63v87h162V0H30" id="al"/><path fill="#3a414a" d="M141 0L90-78 38 0H4l68-98-65-92h35l48 74 47-74h35l-64 92 68 98h-35" id="am"/><g id="i"><use transform="matrix(0.06172839506172839,0,0,0.06172839506172839,0,0)" xlink:href="#al"/><use transform="matrix(0.06172839506172839,0,0,0.06172839506172839,14.814814814814813,0)" xlink:href="#am"/><use transform="matrix(0.06172839506172839,0,0,0.06172839506172839,25.925925925925924,0)" xlink:href="#af"/><use transform="matrix(0.06172839506172839,0,0,0.06172839506172839,30.80246913580247,0)" xlink:href="#W"/></g><path fill="#3a414a" d="M210-169c-67 3-38 105-44 169h-31v-121c0-29-5-50-35-48C34-165 62-65 56 0H25l-1-190h30c1 10-1 24 2 32 10-44 99-50 107 0 11-21 27-35 58-36 85-2 47 119 55 194h-31v-121c0-29-5-49-35-48" id="an"/><g id="j"><use transform="matrix(0.06172839506172839,0,0,0.06172839506172839,0,0)" xlink:href="#aa"/><use transform="matrix(0.06172839506172839,0,0,0.06172839506172839,12.345679012345679,0)" xlink:href="#Y"/><use transform="matrix(0.06172839506172839,0,0,0.06172839506172839,19.691358024691358,0)" xlink:href="#ah"/><use transform="matrix(0.06172839506172839,0,0,0.06172839506172839,32.03703703703704,0)" xlink:href="#ae"/><use transform="matrix(0.06172839506172839,0,0,0.06172839506172839,44.382716049382715,0)" xlink:href="#Y"/><use transform="matrix(0.06172839506172839,0,0,0.06172839506172839,51.72839506172839,0)" xlink:href="#X"/><use transform="matrix(0.06172839506172839,0,0,0.06172839506172839,64.07407407407408,0)" xlink:href="#an"/></g><path fill="#333" d="M175 0L67-191c6 58 2 128 3 191H24v-248h59L193-55c-6-58-2-129-3-193h46V0h-61" id="ao"/><path fill="#333" d="M110-194c64 0 96 36 96 99 0 64-35 99-97 99-61 0-95-36-95-99 0-62 34-99 96-99zm-1 164c35 0 45-28 45-65 0-40-10-65-43-65-34 0-45 26-45 65 0 36 10 65 43 65" id="ap"/><g id="k"><use transform="matrix(0.04938271604938272,0,0,0.04938271604938272,0,0)" xlink:href="#ao"/><use transform="matrix(0.04938271604938272,0,0,0.04938271604938272,12.790123456790125,0)" xlink:href="#ap"/></g><g id="l"><use transform="matrix(0.06172839506172839,0,0,0.06172839506172839,0,0)" xlink:href="#V"/><use transform="matrix(0.06172839506172839,0,0,0.06172839506172839,14.814814814814813,0)" xlink:href="#W"/><use transform="matrix(0.06172839506172839,0,0,0.06172839506172839,20.98765432098765,0)" xlink:href="#ah"/><use transform="matrix(0.06172839506172839,0,0,0.06172839506172839,33.33333333333333,0)" xlink:href="#Y"/><use transform="matrix(0.06172839506172839,0,0,0.06172839506172839,40.679012345679006,0)" xlink:href="#Z"/></g><path fill="#3a414a" d="M85-194c31 0 48 13 60 33l-1-100h32l1 261h-30c-2-10 0-23-3-31C134-8 116 4 85 4 32 4 16-35 15-94c0-66 23-100 70-100zm9 24c-40 0-46 34-46 75 0 40 6 74 45 74 42 0 51-32 51-76 0-42-9-74-50-73" id="aq"/><g id="m"><use transform="matrix(0.06172839506172839,0,0,0.06172839506172839,0,0)" xlink:href="#Y"/><use transform="matrix(0.06172839506172839,0,0,0.06172839506172839,7.345679012345679,0)" xlink:href="#X"/><use transform="matrix(0.06172839506172839,0,0,0.06172839506172839,19.691358024691358,0)" xlink:href="#ag"/><use transform="matrix(0.06172839506172839,0,0,0.06172839506172839,32.03703703703704,0)" xlink:href="#aq"/><use transform="matrix(0.06172839506172839,0,0,0.06172839506172839,44.382716049382715,0)" xlink:href="#ah"/><use transform="matrix(0.06172839506172839,0,0,0.06172839506172839,56.72839506172839,0)" xlink:href="#an"/></g><path fill="#3a414a" d="M115-194c53 0 69 39 70 98 0 66-23 100-70 100C84 3 66-7 56-30L54 0H23l1-261h32v101c10-23 28-34 59-34zm-8 174c40 0 45-34 45-75 0-40-5-75-45-74-42 0-51 32-51 76 0 43 10 73 51 73" id="ar"/><g id="n"><use transform="matrix(0.06172839506172839,0,0,0.06172839506172839,0,0)" xlink:href="#ag"/><use transform="matrix(0.06172839506172839,0,0,0.06172839506172839,12.345679012345679,0)" xlink:href="#ai"/><use transform="matrix(0.06172839506172839,0,0,0.06172839506172839,24.691358024691358,0)" xlink:href="#an"/><use transform="matrix(0.06172839506172839,0,0,0.06172839506172839,43.148148148148145,0)" xlink:href="#ar"/><use transform="matrix(0.06172839506172839,0,0,0.06172839506172839,55.49382716049382,0)" xlink:href="#Z"/><use transform="matrix(0.06172839506172839,0,0,0.06172839506172839,67.8395061728395,0)" xlink:href="#Y"/></g><path fill="#333" d="M146-102V0H94v-102L6-248h54l60 105 60-105h54" id="as"/><path fill="#333" d="M185-48c-13 30-37 53-82 52C43 2 14-33 14-96s30-98 90-98c62 0 83 45 84 108H66c0 31 8 55 39 56 18 0 30-7 34-22zm-45-69c5-46-57-63-70-21-2 6-4 13-4 21h74" id="at"/><path fill="#333" d="M137-138c1-29-70-34-71-4 15 46 118 7 119 86 1 83-164 76-172 9l43-7c4 19 20 25 44 25 33 8 57-30 24-41C81-84 22-81 20-136c-2-80 154-74 161-7" id="au"/><g id="o"><use transform="matrix(0.04938271604938272,0,0,0.04938271604938272,0,0)" xlink:href="#as"/><use transform="matrix(0.04938271604938272,0,0,0.04938271604938272,10.864197530864198,0)" xlink:href="#at"/><use transform="matrix(0.04938271604938272,0,0,0.04938271604938272,20.74074074074074,0)" xlink:href="#au"/></g><g id="p"><use transform="matrix(0.06172839506172839,0,0,0.06172839506172839,0,0)" xlink:href="#V"/><use transform="matrix(0.06172839506172839,0,0,0.06172839506172839,14.814814814814813,0)" xlink:href="#Z"/><use transform="matrix(0.06172839506172839,0,0,0.06172839506172839,27.160493827160494,0)" xlink:href="#W"/></g><path fill="#3a414a" d="M96-169c-40 0-48 33-48 73s9 75 48 75c24 0 41-14 43-38l32 2c-6 37-31 61-74 61-59 0-76-41-82-99-10-93 101-131 147-64 4 7 5 14 7 22l-32 3c-4-21-16-35-41-35" id="av"/><g id="q"><use transform="matrix(0.06172839506172839,0,0,0.06172839506172839,0,0)" xlink:href="#av"/><use transform="matrix(0.06172839506172839,0,0,0.06172839506172839,11.11111111111111,0)" xlink:href="#ah"/><use transform="matrix(0.06172839506172839,0,0,0.06172839506172839,23.45679012345679,0)" xlink:href="#Y"/><use transform="matrix(0.06172839506172839,0,0,0.06172839506172839,30.80246913580247,0)" xlink:href="#Y"/><use transform="matrix(0.06172839506172839,0,0,0.06172839506172839,38.148148148148145,0)" xlink:href="#Z"/><use transform="matrix(0.06172839506172839,0,0,0.06172839506172839,50.49382716049382,0)" xlink:href="#av"/><use transform="matrix(0.06172839506172839,0,0,0.06172839506172839,61.60493827160494,0)" xlink:href="#W"/></g><path fill="#3a414a" d="M101-234c-31-9-42 10-38 44h38v23H63V0H32v-167H5v-23h27c-7-52 17-82 69-68v24" id="aw"/><g id="r"><use transform="matrix(0.06172839506172839,0,0,0.06172839506172839,0,0)" xlink:href="#aw"/><use transform="matrix(0.06172839506172839,0,0,0.06172839506172839,6.172839506172839,0)" xlink:href="#X"/><use transform="matrix(0.06172839506172839,0,0,0.06172839506172839,18.51851851851852,0)" xlink:href="#ab"/><use transform="matrix(0.06172839506172839,0,0,0.06172839506172839,23.395061728395063,0)" xlink:href="#aj"/><use transform="matrix(0.06172839506172839,0,0,0.06172839506172839,34.50617283950618,0)" xlink:href="#Z"/></g><path fill="#3a414a" d="M143 0L79-87 56-68V0H24v-261h32v163l83-92h37l-77 82L181 0h-38" id="ax"/><g id="s"><use transform="matrix(0.06172839506172839,0,0,0.06172839506172839,0,0)" xlink:href="#ad"/><use transform="matrix(0.06172839506172839,0,0,0.06172839506172839,14.814814814814813,0)" xlink:href="#aj"/><use transform="matrix(0.06172839506172839,0,0,0.06172839506172839,25.925925925925924,0)" xlink:href="#ax"/></g><g id="t"><use transform="matrix(0.06172839506172839,0,0,0.06172839506172839,0,0)" xlink:href="#aw"/><use transform="matrix(0.06172839506172839,0,0,0.06172839506172839,6.172839506172839,0)" xlink:href="#ah"/><use transform="matrix(0.06172839506172839,0,0,0.06172839506172839,18.51851851851852,0)" xlink:href="#Y"/></g><g id="u"><use transform="matrix(0.06172839506172839,0,0,0.06172839506172839,0,0)" xlink:href="#X"/><use transform="matrix(0.06172839506172839,0,0,0.06172839506172839,12.345679012345679,0)" xlink:href="#ag"/><use transform="matrix(0.06172839506172839,0,0,0.06172839506172839,24.691358024691358,0)" xlink:href="#aq"/></g><path fill="#3a414a" d="M68-38c1 34 0 65-14 84H32c9-13 17-26 17-46H33v-38h35" id="ay"/><g id="v"><use transform="matrix(0.06172839506172839,0,0,0.06172839506172839,0,0)" xlink:href="#av"/><use transform="matrix(0.06172839506172839,0,0,0.06172839506172839,11.11111111111111,0)" xlink:href="#ah"/><use transform="matrix(0.06172839506172839,0,0,0.06172839506172839,23.45679012345679,0)" xlink:href="#ab"/><use transform="matrix(0.06172839506172839,0,0,0.06172839506172839,28.333333333333336,0)" xlink:href="#ab"/><use transform="matrix(0.06172839506172839,0,0,0.06172839506172839,33.20987654320988,0)" xlink:href="#Z"/><use transform="matrix(0.06172839506172839,0,0,0.06172839506172839,45.55555555555556,0)" xlink:href="#av"/><use transform="matrix(0.06172839506172839,0,0,0.06172839506172839,56.66666666666667,0)" xlink:href="#W"/><use transform="matrix(0.06172839506172839,0,0,0.06172839506172839,62.83950617283951,0)" xlink:href="#ay"/></g><g id="w"><use transform="matrix(0.06172839506172839,0,0,0.06172839506172839,0,0)" xlink:href="#aj"/><use transform="matrix(0.06172839506172839,0,0,0.06172839506172839,11.11111111111111,0)" xlink:href="#W"/><use transform="matrix(0.06172839506172839,0,0,0.06172839506172839,17.28395061728395,0)" xlink:href="#ah"/><use transform="matrix(0.06172839506172839,0,0,0.06172839506172839,29.629629629629626,0)" xlink:href="#Y"/><use transform="matrix(0.06172839506172839,0,0,0.06172839506172839,36.9753086419753,0)" xlink:href="#Z"/></g><g id="x"><use transform="matrix(0.06172839506172839,0,0,0.06172839506172839,0,0)" xlink:href="#ae"/><use transform="matrix(0.06172839506172839,0,0,0.06172839506172839,12.345679012345679,0)" xlink:href="#ai"/><use transform="matrix(0.06172839506172839,0,0,0.06172839506172839,24.691358024691358,0)" xlink:href="#Z"/><use transform="matrix(0.06172839506172839,0,0,0.06172839506172839,37.03703703703704,0)" xlink:href="#aj"/><use transform="matrix(0.06172839506172839,0,0,0.06172839506172839,48.14814814814815,0)" xlink:href="#aj"/></g><path fill="#3a414a" d="M33 0v-248h34V0H33" id="az"/><g id="y"><use transform="matrix(0.06172839506172839,0,0,0.06172839506172839,0,0)" xlink:href="#az"/><use transform="matrix(0.06172839506172839,0,0,0.06172839506172839,6.172839506172839,0)" xlink:href="#aj"/></g><g id="z"><use transform="matrix(0.06172839506172839,0,0,0.06172839506172839,0,0)" xlink:href="#ae"/><use transform="matrix(0.06172839506172839,0,0,0.06172839506172839,12.345679012345679,0)" xlink:href="#ai"/><use transform="matrix(0.06172839506172839,0,0,0.06172839506172839,24.691358024691358,0)" xlink:href="#Z"/><use transform="matrix(0.06172839506172839,0,0,0.06172839506172839,37.03703703703704,0)" xlink:href="#aj"/><use transform="matrix(0.06172839506172839,0,0,0.06172839506172839,48.14814814814815,0)" xlink:href="#aj"/></g><path fill="#3a414a" d="M145-31C134-9 116 4 85 4 32 4 16-35 15-94c0-59 17-99 70-100 32-1 48 14 60 33 0-11-1-24 2-32h30l-1 268h-32zM93-21c41 0 51-33 51-76s-8-73-50-73c-40 0-46 35-46 75s5 74 45 74" id="aA"/><g id="A"><use transform="matrix(0.06172839506172839,0,0,0.06172839506172839,0,0)" xlink:href="#Z"/><use transform="matrix(0.06172839506172839,0,0,0.06172839506172839,12.345679012345679,0)" xlink:href="#aA"/><use transform="matrix(0.06172839506172839,0,0,0.06172839506172839,24.691358024691358,0)" xlink:href="#ai"/><use transform="matrix(0.06172839506172839,0,0,0.06172839506172839,37.03703703703704,0)" xlink:href="#X"/><use transform="matrix(0.06172839506172839,0,0,0.06172839506172839,49.382716049382715,0)" xlink:href="#ab"/></g><g id="B"><use transform="matrix(0.06172839506172839,0,0,0.06172839506172839,0,0)" xlink:href="#Y"/><use transform="matrix(0.06172839506172839,0,0,0.06172839506172839,7.345679012345679,0)" xlink:href="#X"/><use transform="matrix(0.06172839506172839,0,0,0.06172839506172839,19.691358024691358,0)" xlink:href="#ag"/><use transform="matrix(0.06172839506172839,0,0,0.06172839506172839,32.03703703703704,0)" xlink:href="#aq"/><use transform="matrix(0.06172839506172839,0,0,0.06172839506172839,44.382716049382715,0)" xlink:href="#ah"/><use transform="matrix(0.06172839506172839,0,0,0.06172839506172839,56.72839506172839,0)" xlink:href="#an"/></g><g id="C"><use transform="matrix(0.06172839506172839,0,0,0.06172839506172839,0,0)" xlink:href="#ag"/><use transform="matrix(0.06172839506172839,0,0,0.06172839506172839,12.345679012345679,0)" xlink:href="#ai"/><use transform="matrix(0.06172839506172839,0,0,0.06172839506172839,24.691358024691358,0)" xlink:href="#an"/><use transform="matrix(0.06172839506172839,0,0,0.06172839506172839,43.148148148148145,0)" xlink:href="#ar"/><use transform="matrix(0.06172839506172839,0,0,0.06172839506172839,55.49382716049382,0)" xlink:href="#Z"/><use transform="matrix(0.06172839506172839,0,0,0.06172839506172839,67.8395061728395,0)" xlink:href="#Y"/><use transform="matrix(0.06172839506172839,0,0,0.06172839506172839,75.18518518518519,0)" xlink:href="#ak"/></g><g id="D"><use transform="matrix(0.06172839506172839,0,0,0.06172839506172839,0,0)" xlink:href="#V"/><use transform="matrix(0.06172839506172839,0,0,0.06172839506172839,14.814814814814813,0)" xlink:href="#X"/><use transform="matrix(0.06172839506172839,0,0,0.06172839506172839,27.160493827160494,0)" xlink:href="#ac"/></g><path fill="#3a414a" d="M109-170H84l-4-78h32zm-65 0H19l-4-78h33" id="aB"/><path fill="#3a414a" d="M266 0h-40l-56-210L115 0H75L2-248h35L96-30l15-64 43-154h32l59 218 59-218h35" id="aC"/><path fill="#3a414a" d="M63-70H37l-4-178h34zM33 0v-35h34V0H33" id="aD"/><g id="E"><use transform="matrix(0.06172839506172839,0,0,0.06172839506172839,0,0)" xlink:href="#aB"/><use transform="matrix(0.06172839506172839,0,0,0.06172839506172839,7.8395061728395055,0)" xlink:href="#aC"/><use transform="matrix(0.06172839506172839,0,0,0.06172839506172839,28.33333333333333,0)" xlink:href="#Y"/><use transform="matrix(0.06172839506172839,0,0,0.06172839506172839,35.679012345679006,0)" xlink:href="#ah"/><use transform="matrix(0.06172839506172839,0,0,0.06172839506172839,48.02469135802468,0)" xlink:href="#ag"/><use transform="matrix(0.06172839506172839,0,0,0.06172839506172839,60.37037037037036,0)" xlink:href="#ae"/><use transform="matrix(0.06172839506172839,0,0,0.06172839506172839,72.71604938271604,0)" xlink:href="#aD"/></g><path fill="#3a414a" d="M127-220V0H93v-220H8v-28h204v28h-85" id="aE"/><g id="F"><use transform="matrix(0.06172839506172839,0,0,0.06172839506172839,0,0)" xlink:href="#aE"/><use transform="matrix(0.06172839506172839,0,0,0.06172839506172839,12.716049382716047,0)" xlink:href="#Y"/><use transform="matrix(0.06172839506172839,0,0,0.06172839506172839,20.061728395061728,0)" xlink:href="#ac"/></g><path fill="#3a414a" d="M33 0v-38h34V0H33" id="aF"/><g id="G"><use transform="matrix(0.06172839506172839,0,0,0.06172839506172839,0,0)" xlink:href="#X"/><use transform="matrix(0.06172839506172839,0,0,0.06172839506172839,12.345679012345679,0)" xlink:href="#ae"/><use transform="matrix(0.06172839506172839,0,0,0.06172839506172839,24.691358024691358,0)" xlink:href="#X"/><use transform="matrix(0.06172839506172839,0,0,0.06172839506172839,37.03703703703704,0)" xlink:href="#af"/><use transform="matrix(0.06172839506172839,0,0,0.06172839506172839,41.91358024691358,0)" xlink:href="#ag"/><use transform="matrix(0.06172839506172839,0,0,0.06172839506172839,54.25925925925926,0)" xlink:href="#aF"/><use transform="matrix(0.06172839506172839,0,0,0.06172839506172839,60.4320987654321,0)" xlink:href="#aB"/></g><path fill="#3a414a" d="M137-103V0h-34v-103L8-248h37l75 118 75-118h37" id="aG"/><g id="H"><use transform="matrix(0.06172839506172839,0,0,0.06172839506172839,0,0)" xlink:href="#aB"/><use transform="matrix(0.06172839506172839,0,0,0.06172839506172839,7.8395061728395055,0)" xlink:href="#aG"/><use transform="matrix(0.06172839506172839,0,0,0.06172839506172839,20.61728395061728,0)" xlink:href="#ah"/><use transform="matrix(0.06172839506172839,0,0,0.06172839506172839,32.96296296296296,0)" xlink:href="#ai"/></g><g id="I"><use transform="matrix(0.06172839506172839,0,0,0.06172839506172839,0,0)" xlink:href="#ae"/><use transform="matrix(0.06172839506172839,0,0,0.06172839506172839,12.345679012345679,0)" xlink:href="#ai"/><use transform="matrix(0.06172839506172839,0,0,0.06172839506172839,24.691358024691358,0)" xlink:href="#Z"/><use transform="matrix(0.06172839506172839,0,0,0.06172839506172839,37.03703703703704,0)" xlink:href="#aj"/><use transform="matrix(0.06172839506172839,0,0,0.06172839506172839,48.14814814814815,0)" xlink:href="#aj"/><use transform="matrix(0.06172839506172839,0,0,0.06172839506172839,59.25925925925927,0)" xlink:href="#Z"/><use transform="matrix(0.06172839506172839,0,0,0.06172839506172839,71.60493827160495,0)" xlink:href="#aq"/></g><g id="J"><use transform="matrix(0.06172839506172839,0,0,0.06172839506172839,0,0)" xlink:href="#af"/><use transform="matrix(0.06172839506172839,0,0,0.06172839506172839,4.876543209876543,0)" xlink:href="#W"/><use transform="matrix(0.06172839506172839,0,0,0.06172839506172839,11.049382716049383,0)" xlink:href="#aD"/><use transform="matrix(0.06172839506172839,0,0,0.06172839506172839,17.22222222222222,0)" xlink:href="#aB"/></g><g id="K"><use transform="matrix(0.06172839506172839,0,0,0.06172839506172839,0,0)" xlink:href="#az"/><use transform="matrix(0.06172839506172839,0,0,0.06172839506172839,6.172839506172839,0)" xlink:href="#aj"/></g><g id="L"><use transform="matrix(0.06172839506172839,0,0,0.06172839506172839,0,0)" xlink:href="#av"/><use transform="matrix(0.06172839506172839,0,0,0.06172839506172839,11.11111111111111,0)" xlink:href="#ah"/><use transform="matrix(0.06172839506172839,0,0,0.06172839506172839,23.45679012345679,0)" xlink:href="#Y"/><use transform="matrix(0.06172839506172839,0,0,0.06172839506172839,30.80246913580247,0)" xlink:href="#Y"/><use transform="matrix(0.06172839506172839,0,0,0.06172839506172839,38.148148148148145,0)" xlink:href="#Z"/><use transform="matrix(0.06172839506172839,0,0,0.06172839506172839,50.49382716049382,0)" xlink:href="#av"/><use transform="matrix(0.06172839506172839,0,0,0.06172839506172839,61.60493827160494,0)" xlink:href="#W"/></g><g id="M"><use transform="matrix(0.06172839506172839,0,0,0.06172839506172839,0,0)" xlink:href="#W"/><use transform="matrix(0.06172839506172839,0,0,0.06172839506172839,6.172839506172839,0)" xlink:href="#ah"/></g><g id="N"><use transform="matrix(0.06172839506172839,0,0,0.06172839506172839,0,0)" xlink:href="#aa"/><use transform="matrix(0.06172839506172839,0,0,0.06172839506172839,12.345679012345679,0)" xlink:href="#ab"/><use transform="matrix(0.06172839506172839,0,0,0.06172839506172839,17.22222222222222,0)" xlink:href="#X"/><use transform="matrix(0.06172839506172839,0,0,0.06172839506172839,29.5679012345679,0)" xlink:href="#ac"/></g><g id="O"><use transform="matrix(0.06172839506172839,0,0,0.06172839506172839,0,0)" xlink:href="#X"/><use transform="matrix(0.06172839506172839,0,0,0.06172839506172839,12.345679012345679,0)" xlink:href="#ae"/><use transform="matrix(0.06172839506172839,0,0,0.06172839506172839,24.691358024691358,0)" xlink:href="#X"/><use transform="matrix(0.06172839506172839,0,0,0.06172839506172839,37.03703703703704,0)" xlink:href="#af"/><use transform="matrix(0.06172839506172839,0,0,0.06172839506172839,41.91358024691358,0)" xlink:href="#ag"/><use transform="matrix(0.06172839506172839,0,0,0.06172839506172839,54.25925925925926,0)" xlink:href="#ay"/></g><g id="P"><use transform="matrix(0.06172839506172839,0,0,0.06172839506172839,0,0)" xlink:href="#av"/><use transform="matrix(0.06172839506172839,0,0,0.06172839506172839,11.11111111111111,0)" xlink:href="#ah"/><use transform="matrix(0.06172839506172839,0,0,0.06172839506172839,23.45679012345679,0)" xlink:href="#ab"/><use transform="matrix(0.06172839506172839,0,0,0.06172839506172839,28.333333333333336,0)" xlink:href="#ab"/><use transform="matrix(0.06172839506172839,0,0,0.06172839506172839,33.20987654320988,0)" xlink:href="#Z"/><use transform="matrix(0.06172839506172839,0,0,0.06172839506172839,45.55555555555556,0)" xlink:href="#av"/><use transform="matrix(0.06172839506172839,0,0,0.06172839506172839,56.66666666666667,0)" xlink:href="#W"/><use transform="matrix(0.06172839506172839,0,0,0.06172839506172839,62.83950617283951,0)" xlink:href="#ay"/></g><g id="Q"><use transform="matrix(0.06172839506172839,0,0,0.06172839506172839,0,0)" xlink:href="#X"/><use transform="matrix(0.06172839506172839,0,0,0.06172839506172839,12.345679012345679,0)" xlink:href="#ag"/><use transform="matrix(0.06172839506172839,0,0,0.06172839506172839,24.691358024691358,0)" xlink:href="#aq"/></g><g id="R"><use transform="matrix(0.06172839506172839,0,0,0.06172839506172839,0,0)" xlink:href="#aj"/><use transform="matrix(0.06172839506172839,0,0,0.06172839506172839,11.11111111111111,0)" xlink:href="#W"/><use transform="matrix(0.06172839506172839,0,0,0.06172839506172839,17.28395061728395,0)" xlink:href="#ah"/><use transform="matrix(0.06172839506172839,0,0,0.06172839506172839,29.629629629629626,0)" xlink:href="#Y"/><use transform="matrix(0.06172839506172839,0,0,0.06172839506172839,36.9753086419753,0)" xlink:href="#Z"/></g><path fill="#3a414a" d="M206 0h-36l-40-164L89 0H53L-1-190h32L70-26l43-164h34l41 164 42-164h31" id="aH"/><g id="S"><use transform="matrix(0.06172839506172839,0,0,0.06172839506172839,0,0)" xlink:href="#X"/><use transform="matrix(0.06172839506172839,0,0,0.06172839506172839,12.345679012345679,0)" xlink:href="#ag"/><use transform="matrix(0.06172839506172839,0,0,0.06172839506172839,24.691358024691358,0)" xlink:href="#aj"/><use transform="matrix(0.06172839506172839,0,0,0.06172839506172839,35.80246913580247,0)" xlink:href="#aH"/><use transform="matrix(0.06172839506172839,0,0,0.06172839506172839,51.79012345679012,0)" xlink:href="#Z"/><use transform="matrix(0.06172839506172839,0,0,0.06172839506172839,64.1358024691358,0)" xlink:href="#Y"/></g><g id="T"><use transform="matrix(0.06172839506172839,0,0,0.06172839506172839,0,0)" xlink:href="#X"/><use transform="matrix(0.06172839506172839,0,0,0.06172839506172839,12.345679012345679,0)" xlink:href="#ag"/><use transform="matrix(0.06172839506172839,0,0,0.06172839506172839,24.691358024691358,0)" xlink:href="#aj"/><use transform="matrix(0.06172839506172839,0,0,0.06172839506172839,35.80246913580247,0)" xlink:href="#aH"/><use transform="matrix(0.06172839506172839,0,0,0.06172839506172839,51.79012345679012,0)" xlink:href="#Z"/><use transform="matrix(0.06172839506172839,0,0,0.06172839506172839,64.1358024691358,0)" xlink:href="#Y"/></g><g id="U"><use transform="matrix(0.06172839506172839,0,0,0.06172839506172839,0,0)" xlink:href="#aB"/><use transform="matrix(0.06172839506172839,0,0,0.06172839506172839,7.8395061728395055,0)" xlink:href="#X"/><use transform="matrix(0.06172839506172839,0,0,0.06172839506172839,20.185185185185183,0)" xlink:href="#ae"/><use transform="matrix(0.06172839506172839,0,0,0.06172839506172839,32.53086419753086,0)" xlink:href="#X"/><use transform="matrix(0.06172839506172839,0,0,0.06172839506172839,44.87654320987654,0)" xlink:href="#af"/><use transform="matrix(0.06172839506172839,0,0,0.06172839506172839,49.75308641975308,0)" xlink:href="#ag"/><use transform="matrix(0.06172839506172839,0,0,0.06172839506172839,62.09876543209876,0)" xlink:href="#aB"/><use transform="matrix(0.06172839506172839,0,0,0.06172839506172839,69.93827160493827,0)" xlink:href="#ak"/></g></defs></g></svg>